<svg width="186" height="20" viewBox="0 0 186 20" fill="none" xmlns="http://www.w3.org/2000/svg">
<path fill-rule="evenodd" clip-rule="evenodd" d="M1.125 8.75C1.74632 8.75 2.25 9.25368 2.25 9.875V18.875C2.25 19.4963 1.74632 20 1.125 20C0.50368 20 0 19.4963 0 18.875V9.875C0 9.25368 0.50368 8.75 1.125 8.75Z" fill="#2D2D2D"/>
<path d="M15.75 4.25L12.9375 2H15.75V4.25Z" fill="#2D2D2D"/>
<path fill-rule="evenodd" clip-rule="evenodd" d="M9 16.625C12.7279 16.625 15.75 13.6029 15.75 9.875C15.75 6.14708 12.7279 3.125 9 3.125C5.27208 3.125 2.25 6.14708 2.25 9.875C2.25 13.6029 5.27208 16.625 9 16.625ZM9 18.875C13.9706 18.875 18 14.8456 18 9.875C18 4.90444 13.9706 0.875 9 0.875C4.02944 0.875 0 4.90444 0 9.875C0 14.8456 4.02944 18.875 9 18.875Z" fill="#2D2D2D"/>
<path fill-rule="evenodd" clip-rule="evenodd" d="M9 3.12813C9.88601 3.12813 10.7633 3.30264 11.5819 3.6417C12.4005 3.98077 13.1443 4.47774 13.7708 5.10424C14.3973 5.73075 14.8942 6.47452 15.2333 7.29308C15.5724 8.11165 15.7469 8.98899 15.7469 9.875C15.7469 10.761 15.5724 11.6383 15.2333 12.4569C14.8942 13.2755 14.3973 14.0193 13.7708 14.6458C13.1443 15.2723 12.4005 15.7692 11.5819 16.1083C10.7633 16.4474 9.88601 16.6219 9 16.6219L9 18.875C9.76073 18.875 10.5167 18.7786 11.25 18.5892C11.656 18.4844 12.055 18.3511 12.4442 18.1899C13.5361 17.7376 14.5282 17.0747 15.364 16.239C16.1997 15.4032 16.8626 14.4111 17.3149 13.3192C17.7672 12.2272 18 11.0569 18 9.875C18 8.6931 17.7672 7.52278 17.3149 6.43085C16.8626 5.33892 16.1997 4.34677 15.364 3.51104C14.5282 2.67531 13.5361 2.01238 12.4442 1.56009C12.055 1.39891 11.656 1.26561 11.25 1.16079C10.5167 0.971443 9.76073 0.875 9 0.875L9 3.12813Z" fill="#2D2D2D"/>
<path fill-rule="evenodd" clip-rule="evenodd" d="M9 0.875C8.37868 0.875 7.875 1.37868 7.875 2C7.875 2.62132 8.37868 3.125 9 3.125H15.75L15.75 9.875C15.75 10.4963 16.2537 11 16.875 11C17.4963 11 18 10.4963 18 9.875V2C18 1.37868 17.4963 0.875 16.875 0.875H9Z" fill="#2D2D2D"/>
<path d="M26.5 9.00195L26.5 17.4996" stroke="#2D2D2D" stroke-linecap="round"/>
<circle cx="34.5" cy="9.50195" r="8" stroke="#2D2D2D"/>
<path d="M61.5 3.50195V15.502" stroke="#2D2D2D" stroke-linecap="round"/>
<circle cx="53.5" cy="9.50195" r="8" stroke="#2D2D2D"/>
<circle cx="72.5" cy="9.50195" r="8" stroke="#2D2D2D"/>
<path d="M84 1.50195V17.502" stroke="#2D2D2D" stroke-linecap="round"/>
<path d="M103.5 3.50195V15.502" stroke="#2D2D2D" stroke-linecap="round"/>
<circle cx="95.5" cy="9.50195" r="8" stroke="#2D2D2D"/>
<path d="M122.5 9.50195V1.50195" stroke="#2D2D2D" stroke-linecap="round"/>
<circle cx="114.5" cy="9.50195" r="8" transform="rotate(-180 114.5 9.50195)" stroke="#2D2D2D"/>
<path d="M126 4.00195V17.502" stroke="#2D2D2D" stroke-linecap="round"/>
<path d="M126 1.50195V2.00195" stroke="#2D2D2D" stroke-linecap="round"/>
<path d="M138 1.50195V17.502" stroke="#2D2D2D" stroke-linecap="round"/>
<path d="M138 1.50195H130" stroke="#2D2D2D" stroke-linecap="round" stroke-linejoin="round"/>
<circle cx="149.5" cy="9.50195" r="8" stroke="#2D2D2D"/>
<path fill-rule="evenodd" clip-rule="evenodd" d="M160.5 1.00195C160.776 1.00195 161 1.25566 161 1.56862V17.4353C161 17.7482 160.776 18.002 160.5 18.002C160.224 18.002 160 17.7482 160 17.4353V1.56862C160 1.25566 160.224 1.00195 160.5 1.00195Z" fill="#2D2D2D"/>
<path fill-rule="evenodd" clip-rule="evenodd" d="M160.468 5.00843C160.558 5.29903 160.965 5.34063 161.134 5.08753C161.608 4.37786 162.192 3.74918 162.863 3.22988C163.629 2.63756 164.49 2.20075 165.399 1.94238C165.64 1.87366 165.802 1.63965 165.763 1.39152C165.72 1.12186 165.459 0.942377 165.197 1.01699C165.028 1.06505 164.86 1.11859 164.694 1.17749C163.852 1.47605 163.054 1.91237 162.332 2.47134C161.795 2.88632 161.021 3.77969 160.657 4.21237C160.546 4.34512 160.529 4.48227 160.504 4.65384C160.492 4.73378 160.439 4.91614 160.463 4.99327L160.468 5.00843Z" fill="#2D2D2D"/>
<circle cx="176.27" cy="9.50195" r="8" stroke="#2D2D2D"/>
</svg>
